<svg xmlns="http://www.w3.org/2000/svg" xmlns:xlink="http://www.w3.org/1999/xlink" width="1352pt" height="332pt" viewBox="0.00 0.00 1352.00 332.00">
<g id="graph0" class="graph" transform="scale(1 1) rotate(0) translate(4 328.46)">
<title>Telco_Churn_Pipeline_v3</title>
<polygon fill="white" stroke="none" points="-4,4 -4,-328.46 1348.35,-328.46 1348.35,4 -4,4"/>
<g id="clust1" class="cluster">
<title>cluster_0</title>
<polygon fill="none" stroke="#cccccc" stroke-dasharray="5,2" points="6,-187.46 6,-264.46 118.03,-264.46 118.03,-187.46 6,-187.46"/>
<text xml:space="preserve" text-anchor="middle" x="62.01" y="-247.86" font-family="Times,serif" font-size="14.00">1. Data Ingestion</text>
</g>
<g id="clust2" class="cluster">
<title>cluster_1</title>
<polygon fill="none" stroke="#303f9f" points="139.03,-187.46 139.03,-264.46 521.9,-264.46 521.9,-187.46 139.03,-187.46"/>
<text xml:space="preserve" text-anchor="middle" x="330.46" y="-247.86" font-family="Times,serif" font-size="14.00">2. Model Development</text>
</g>
<g id="clust3" class="cluster">
<title>cluster_2</title>
<path fill="none" stroke="#2e7d32" d="M589.12,-133.46C589.12,-133.46 1148.74,-133.46 1148.74,-133.46 1154.74,-133.46 1160.74,-139.46 1160.74,-145.46 1160.74,-145.46 1160.74,-304.46 1160.74,-304.46 1160.74,-310.46 1154.74,-316.46 1148.74,-316.46 1148.74,-316.46 589.12,-316.46 589.12,-316.46 583.12,-316.46 577.12,-310.46 577.12,-304.46 577.12,-304.46 577.12,-145.46 577.12,-145.46 577.12,-139.46 583.12,-133.46 589.12,-133.46"/>
<text xml:space="preserve" text-anchor="middle" x="868.93" y="-299.86" font-family="Times,serif" font-size="14.00">3. Production (Dockerized)</text>
</g>
<!-- RawData -->
<g id="node1" class="node">
<title>RawData</title>
<polygon fill="#ffccbc" stroke="black" points="107.02,-231.46 16,-231.46 16,-195.46 107.02,-195.46 107.02,-231.46"/>
<text xml:space="preserve" text-anchor="middle" x="61.51" y="-216.46" font-family="Arial" font-size="10.00">IBM Telco Churn</text>
<text xml:space="preserve" text-anchor="middle" x="61.51" y="-204.46" font-family="Arial" font-size="10.00">(Kaggle CSV)</text>
</g>
<!-- EDA -->
<g id="node2" class="node">
<title>EDA</title>
<polygon fill="#c5cae9" stroke="black" points="219.17,-231.46 147.03,-231.46 147.03,-195.46 219.17,-195.46 219.17,-231.46"/>
<text xml:space="preserve" text-anchor="middle" x="183.1" y="-216.46" font-family="Arial" font-size="10.00">EDA &amp;</text>
<text xml:space="preserve" text-anchor="middle" x="183.1" y="-204.46" font-family="Arial" font-size="10.00">Visualization</text>
</g>
<!-- RawData&#45;&gt;EDA -->
<g id="edge1" class="edge">
<title>RawData-&gt;EDA</title>
<path fill="none" stroke="black" d="M107.38,-213.46C116.52,-213.46 126.15,-213.46 135.34,-213.46"/>
<polygon fill="black" stroke="black" points="135.18,-216.96 145.18,-213.46 135.18,-209.96 135.18,-216.96"/>
</g>
<!-- Training -->
<g id="node3" class="node">
<title>Training</title>
<polygon fill="#7986cb" stroke="black" points="352.21,-231.46 256.17,-231.46 256.17,-227.46 252.17,-227.46 252.17,-223.46 256.17,-223.46 256.17,-203.46 252.17,-203.46 252.17,-199.46 256.17,-199.46 256.17,-195.46 352.21,-195.46 352.21,-231.46"/>
<polyline fill="none" stroke="black" points="256.17,-227.46 260.17,-227.46 260.17,-223.46 256.17,-223.46"/>
<polyline fill="none" stroke="black" points="256.17,-203.46 260.17,-203.46 260.17,-199.46 256.17,-199.46"/>
<text xml:space="preserve" text-anchor="middle" x="304.19" y="-210.46" font-family="Arial" font-size="10.00" fill="white">CatBoost Training</text>
</g>
<!-- EDA&#45;&gt;Training -->
<g id="edge2" class="edge">
<title>EDA-&gt;Training</title>
<path fill="none" stroke="black" d="M219.51,-213.46C227.33,-213.46 235.83,-213.46 244.3,-213.46"/>
<polygon fill="black" stroke="black" points="244.27,-216.96 254.27,-213.46 244.27,-209.96 244.27,-216.96"/>
</g>
<!-- SHAP -->
<g id="node4" class="node">
<title>SHAP</title>
<polygon fill="#c5cae9" stroke="black" points="513.9,-231.46 435.09,-231.46 435.09,-195.46 513.9,-195.46 513.9,-231.46"/>
<text xml:space="preserve" text-anchor="middle" x="474.5" y="-216.46" font-family="Arial" font-size="10.00">XAI: SHAP</text>
<text xml:space="preserve" text-anchor="middle" x="474.5" y="-204.46" font-family="Arial" font-size="10.00">Interpretability</text>
</g>
<!-- Training&#45;&gt;SHAP -->
<g id="edge3" class="edge">
<title>Training-&gt;SHAP</title>
<path fill="none" stroke="black" d="M352.52,-213.46C374.63,-213.46 400.96,-213.46 423.4,-213.46"/>
<polygon fill="black" stroke="black" points="423.22,-216.96 433.22,-213.46 423.22,-209.96 423.22,-216.96"/>
</g>
<!-- ModelFile -->
<g id="node5" class="node">
<title>ModelFile</title>
<path fill="#fff176" stroke="black" d="M525.02,-174.19C525.02,-175.99 502.37,-177.46 474.5,-177.46 446.62,-177.46 423.98,-175.99 423.98,-174.19 423.98,-174.19 423.98,-144.73 423.98,-144.73 423.98,-142.92 446.62,-141.46 474.5,-141.46 502.37,-141.46 525.02,-142.92 525.02,-144.73 525.02,-144.73 525.02,-174.19 525.02,-174.19"/>
<path fill="none" stroke="black" d="M525.02,-174.19C525.02,-172.38 502.37,-170.91 474.5,-170.91 446.62,-170.91 423.98,-172.38 423.98,-174.19"/>
<text xml:space="preserve" text-anchor="middle" x="474.5" y="-156.46" font-family="Arial" font-size="10.00">trained_model.cbm</text>
</g>
<!-- Training&#45;&gt;ModelFile -->
<g id="edge4" class="edge">
<title>Training-&gt;ModelFile</title>
<path fill="none" stroke="black" d="M352.52,-198.27C371.23,-192.27 392.95,-185.3 412.79,-178.93"/>
<polygon fill="black" stroke="black" points="413.69,-182.32 422.15,-175.93 411.55,-175.66 413.69,-182.32"/>
<text xml:space="preserve" text-anchor="middle" x="388.09" y="-195.49" font-family="Times,serif" font-size="14.00">export</text>
</g>
<!-- FastAPI -->
<g id="node7" class="node">
<title>FastAPI</title>
<polygon fill="#a5d6a7" stroke="black" points="692.25,-177.46 585.12,-177.46 585.12,-141.46 692.25,-141.46 692.25,-177.46"/>
<text xml:space="preserve" text-anchor="middle" x="638.68" y="-162.46" font-family="Arial" font-size="10.00">FastAPI Backend</text>
<text xml:space="preserve" text-anchor="middle" x="638.68" y="-150.46" font-family="Arial" font-size="10.00">(SQLAlchemy/ORM)</text>
</g>
<!-- ModelFile&#45;&gt;FastAPI -->
<g id="edge5" class="edge">
<title>ModelFile-&gt;FastAPI</title>
<path fill="none" stroke="black" d="M525.48,-159.46C540.61,-159.46 557.44,-159.46 573.37,-159.46"/>
<polygon fill="black" stroke="black" points="573.26,-162.96 583.26,-159.46 573.26,-155.96 573.26,-162.96"/>
<text xml:space="preserve" text-anchor="middle" x="555.07" y="-163.66" font-family="Times,serif" font-size="14.00">load</text>
</g>
<!-- SQL_DB -->
<g id="node6" class="node">
<title>SQL_DB</title>
<path fill="#81d4fa" stroke="black" d="M1051.92,-115.96C1051.92,-119.82 1027.16,-122.96 996.68,-122.96 966.2,-122.96 941.44,-119.82 941.44,-115.96 941.44,-115.96 941.44,-52.96 941.44,-52.96 941.44,-49.1 966.2,-45.96 996.68,-45.96 1027.16,-45.96 1051.92,-49.1 1051.92,-52.96 1051.92,-52.96 1051.92,-115.96 1051.92,-115.96"/>
<path fill="none" stroke="black" d="M1051.92,-115.96C1051.92,-112.1 1027.16,-108.96 996.68,-108.96 966.2,-108.96 941.44,-112.1 941.44,-115.96"/>
<text xml:space="preserve" text-anchor="middle" x="996.68" y="-99.46" font-family="Arial" font-size="10.00">SQL Database</text>
<text xml:space="preserve" text-anchor="middle" x="996.68" y="-87.46" font-family="Arial" font-size="10.00">(PostgreSQL/SQLite)</text>
<text xml:space="preserve" text-anchor="middle" x="996.68" y="-75.46" font-family="Arial" font-size="10.00">[Prediction Logs &amp;</text>
<text xml:space="preserve" text-anchor="middle" x="996.68" y="-63.46" font-family="Arial" font-size="10.00">Customer Metadata]</text>
</g>
<!-- FastAPI&#45;&gt;SQL_DB -->
<g id="edge6" class="edge">
<title>FastAPI-&gt;SQL_DB</title>
<path fill="none" stroke="black" d="M678.55,-135.56C688.57,-130.3 699.55,-125.28 710.25,-121.86 783.09,-98.53 870.85,-89.73 929.66,-86.42"/>
<polygon fill="black" stroke="black" points="676.92,-132.46 669.84,-140.34 680.29,-138.6 676.92,-132.46"/>
<polygon fill="black" stroke="black" points="929.71,-89.92 939.51,-85.91 929.34,-82.93 929.71,-89.92"/>
<text xml:space="preserve" text-anchor="middle" x="766.43" y="-142.86" font-family="Times,serif" font-size="14.00">Store Logs /</text>
<text xml:space="preserve" text-anchor="middle" x="766.43" y="-126.06" font-family="Times,serif" font-size="14.00">Query History</text>
</g>
<!-- Streamlit -->
<g id="node8" class="node">
<title>Streamlit</title>
<polygon fill="#a5d6a7" stroke="black" points="1056.92,-177.46 936.43,-177.46 936.43,-141.46 1056.92,-141.46 1056.92,-177.46"/>
<text xml:space="preserve" text-anchor="middle" x="996.68" y="-162.46" font-family="Arial" font-size="10.00">Streamlit Frontend</text>
<text xml:space="preserve" text-anchor="middle" x="996.68" y="-150.46" font-family="Arial" font-size="10.00">(Interactive Dashboard)</text>
</g>
<!-- FastAPI&#45;&gt;Streamlit -->
<g id="edge7" class="edge">
<title>FastAPI-&gt;Streamlit</title>
<path fill="none" stroke="black" d="M704.09,-159.46C766.4,-159.46 860.62,-159.46 924.98,-159.46"/>
<polygon fill="black" stroke="black" points="704.11,-155.96 694.11,-159.46 704.11,-162.96 704.11,-155.96"/>
<polygon fill="black" stroke="black" points="924.72,-162.96 934.72,-159.46 924.72,-155.96 924.72,-162.96"/>
<text xml:space="preserve" text-anchor="middle" x="766.43" y="-163.66" font-family="Times,serif" font-size="14.00">REST API</text>
</g>
<!-- Gemini -->
<g id="node9" class="node">
<title>Gemini</title>
<polygon fill="#b39ddb" stroke="black" points="996.68,-283.46 840.61,-239.46 996.68,-195.46 1152.74,-239.46 996.68,-283.46"/>
<text xml:space="preserve" text-anchor="middle" x="996.68" y="-248.46" font-family="Arial" font-size="10.00">Google Gemini API</text>
<text xml:space="preserve" text-anchor="middle" x="996.68" y="-236.46" font-family="Arial" font-size="10.00">[AI-Driven Strategic Advice]</text>
<text xml:space="preserve" text-anchor="middle" x="996.68" y="-224.46" font-family="Arial" font-size="10.00">Real-time Actionable Strategies</text>
</g>
<!-- FastAPI&#45;&gt;Gemini -->
<g id="edge8" class="edge">
<title>FastAPI-&gt;Gemini</title>
<path fill="none" stroke="black" d="M703.75,-178.78C705.94,-179.36 708.11,-179.92 710.25,-180.46 769.35,-195.33 836.03,-209.27 890.06,-219.86"/>
<polygon fill="black" stroke="black" points="704.75,-175.43 694.18,-176.17 702.91,-182.18 704.75,-175.43"/>
<polygon fill="black" stroke="black" points="889.08,-223.24 899.56,-221.71 890.41,-216.36 889.08,-223.24"/>
<text xml:space="preserve" text-anchor="middle" x="766.43" y="-209.71" font-family="Times,serif" font-size="14.00">Strategic Reasoning</text>
</g>
<!-- HFS -->
<g id="node10" class="node">
<title>HFS</title>
<polygon fill="#ffee58" stroke="black" points="1344.35,-45.46 1229.96,-45.46 1229.96,-9.46 1344.35,-9.46 1344.35,-45.46"/>
<text xml:space="preserve" text-anchor="middle" x="1287.16" y="-30.46" font-family="Arial" font-size="10.00">Hugging Face Spaces</text>
<text xml:space="preserve" text-anchor="middle" x="1287.16" y="-18.46" font-family="Arial" font-size="10.00">(Cloud Hosting)</text>
</g>
<!-- FastAPI&#45;&gt;HFS -->
<g id="edge10" class="edge">
<title>FastAPI-&gt;HFS</title>
<path fill="none" stroke="#1e88e5" stroke-width="2" d="M656.81,-141.1C688.97,-108.28 762.24,-41.06 840.61,-20.66 970.96,13.27 1130.11,-2.1 1218.58,-15.4"/>
<polygon fill="#1e88e5" stroke="#1e88e5" stroke-width="2" points="1216.39,-18.6 1226.8,-16.67 1217.45,-11.69 1216.39,-18.6"/>
<text xml:space="preserve" text-anchor="middle" x="996.68" y="-24.86" font-family="Times,serif" font-size="14.00">Serve</text>
</g>
<!-- Streamlit&#45;&gt;HFS -->
<g id="edge9" class="edge">
<title>Streamlit-&gt;HFS</title>
<path fill="none" stroke="#1e88e5" stroke-width="2" d="M1057.24,-157.17C1089.14,-154.11 1128.41,-147.31 1160.74,-132.46 1201.37,-113.8 1239.46,-78.38 1262.77,-53.87"/>
<polygon fill="#1e88e5" stroke="#1e88e5" stroke-width="2" points="1264.06,-57.62 1268.31,-47.91 1258.93,-52.85 1264.06,-57.62"/>
<text xml:space="preserve" text-anchor="middle" x="1191.35" y="-130.74" font-family="Times,serif" font-size="14.00">Deploy</text>
</g>
</g>
</svg>